<svg id="Layer_1" data-name="Layer 1" xmlns="http://www.w3.org/2000/svg" viewBox="0 0 314.077 279.955"><defs><style>.cls-1{fill:#383838;}</style></defs><path class="cls-1" d="M658.241,380.823H371.533a13.686,13.686,0,0,1,0-27.371H658.241a13.686,13.686,0,0,1,0,27.371Z" transform="translate(-357.848 -353.452)"/><path class="cls-1" d="M578.754,507.115H371.533a13.686,13.686,0,0,1,0-27.372H578.754a13.686,13.686,0,1,1,0,27.372Z" transform="translate(-357.848 -353.452)"/><path class="cls-1" d="M658.241,633.407H371.533a13.688,13.688,0,0,1,0-27.375H658.241a13.688,13.688,0,0,1,0,27.375Z" transform="translate(-357.848 -353.452)"/></svg>